HIERARCHY
ROOT joint_Root
{
	OFFSET 0.0 0.0 0.0
	CHANNELS 6 Xposition Yposition Zposition Zrotation Xrotation Yrotation 
	JOINT Hips
	{
		OFFSET 4.5925 91.4895 -427.239
		CHANNELS 6 Xposition Yposition Zposition Zrotation Xrotation Yrotation 
		JOINT Spine
		{
			OFFSET 15.7357 0.0 0.0
			CHANNELS 6 Xposition Yposition Zposition Zrotation Xrotation Yrotation 
			JOINT Chest
			{
				OFFSET 8.98455 -0.406207 0.0
				CHANNELS 6 Xposition Yposition Zposition Zrotation Xrotation Yrotation 
				JOINT Neck
				{
					OFFSET 16.3773 0.0 0.0
					CHANNELS 6 Xposition Yposition Zposition Zrotation Xrotation Yrotation 
					JOINT Head
					{
						OFFSET 6.45672 0.0 0.0
						CHANNELS 6 Xposition Yposition Zposition Zrotation Xrotation Yrotation 
						End Site
						{
							OFFSET 0.0 0.0 0.0
						}
					}
				}
				JOINT Shoulder_L
				{
					OFFSET 12.9942 -0.242716 4.98039
					CHANNELS 6 Xposition Yposition Zposition Zrotation Xrotation Yrotation 
					JOINT UpperArm_L
					{
						OFFSET 5.34809 0.0 0.0
						CHANNELS 6 Xposition Yposition Zposition Zrotation Xrotation Yrotation 
						JOINT LowerArm_L
						{
							OFFSET 24.3286 1.87007e-05 0.0
							CHANNELS 6 Xposition Yposition Zposition Zrotation Xrotation Yrotation 
							JOINT Hand_L
							{
								OFFSET 22.2916 0.0 0.0
								CHANNELS 6 Xposition Yposition Zposition Zrotation Xrotation Yrotation 
								End Site
								{
									OFFSET 0.0 0.0 0.0
								}
							}
						}
					}
				}
				JOINT Shoulder_R
				{
					OFFSET 12.9945 -0.242716 -4.98039
					CHANNELS 6 Xposition Yposition Zposition Zrotation Xrotation Yrotation 
					JOINT UpperArm_R
					{
						OFFSET -5.34813 0.0 0.0
						CHANNELS 6 Xposition Yposition Zposition Zrotation Xrotation Yrotation 
						JOINT LowerArm_R
						{
							OFFSET -24.3289 0.000322201 0.0
							CHANNELS 6 Xposition Yposition Zposition Zrotation Xrotation Yrotation 
							JOINT Hand_R
							{
								OFFSET -22.2915 -0.000108084 0.0
								CHANNELS 6 Xposition Yposition Zposition Zrotation Xrotation Yrotation 
								End Site
								{
									OFFSET 0.0 0.0 0.0
								}
							}
						}
					}
				}
			}
		}
		JOINT UpperLeg_L
		{
			OFFSET -2.19248 -6.46944 0.0
			CHANNELS 6 Xposition Yposition Zposition Zrotation Xrotation Yrotation 
			JOINT LowerLeg_L
			{
				OFFSET 39.0811 0.0 -1.23785e-05
				CHANNELS 6 Xposition Yposition Zposition Zrotation Xrotation Yrotation 
				JOINT Foot_L
				{
					OFFSET 40.9854 0.0 -1.26872e-05
					CHANNELS 6 Xposition Yposition Zposition Zrotation Xrotation Yrotation 
					JOINT Toes_L
					{
						OFFSET 11.7543 0.0 0.0
						CHANNELS 6 Xposition Yposition Zposition Zrotation Xrotation Yrotation 
						End Site
						{
							OFFSET 0.0 0.0 0.0
						}
					}
				}
			}
		}
		JOINT UpperLeg_R
		{
			OFFSET -2.19251 6.46944 0.0
			CHANNELS 6 Xposition Yposition Zposition Zrotation Xrotation Yrotation 
			JOINT LowerLeg_R
			{
				OFFSET -39.0811 -0.00228153 -0.0401928
				CHANNELS 6 Xposition Yposition Zposition Zrotation Xrotation Yrotation 
				JOINT Foot_R
				{
					OFFSET -40.9854 0.0 0.0
					CHANNELS 6 Xposition Yposition Zposition Zrotation Xrotation Yrotation 
					JOINT Toes_R
					{
						OFFSET -11.7543 0.0 0.0
						CHANNELS 6 Xposition Yposition Zposition Zrotation Xrotation Yrotation 
						End Site
						{
							OFFSET 0.0 0.0 0.0
						}
					}
				}
			}
		}
	}
}
MOTION
Frames:	6
Frame Time:	0.0333333
0.000000 0.000000 0.000000 0.000000 0.000000 -0.000000 -1.080870 89.780400 0.459559 88.810900 -3.366500 12.244800 15.735700 0.000005 -0.000001 88.852700 78.451000 -89.062000 8.984550 -0.406207 -0.000000 15.326800 -0.469928 -0.355702 16.377300 -0.000001 -0.000001 5.184440 -3.724170 1.714800 6.456720 -0.000001 -0.000000 -3.301690 -2.879250 -0.844810 12.994200 -0.242716 4.980390 -91.579500 7.245710 -77.667700 5.348090 -0.000007 -0.000001 -61.385500 31.778500 -22.564600 24.328600 0.000019 0.000005 9.169220 20.984900 -24.263000 22.291600 -0.000001 0.000005 12.540500 5.278440 0.667534 12.994500 -0.242716 -4.980390 89.045300 11.148800 -85.074500 -5.348130 -0.000001 -0.000004 -57.978100 37.867300 -21.148600 -24.328900 0.000322 -0.000009 1.296410 3.721430 -19.236500 -22.291500 -0.000108 -0.000004 12.227300 5.415350 -3.443130 -2.192480 -6.469440 -0.000000 -173.999000 -10.872500 -0.186466 39.081100 -0.000007 -0.000012 -0.265870 0.365728 36.016100 40.985400 -0.000006 -0.000013 0.173076 3.680810 -73.343700 11.754300 -0.000000 0.000003 -0.000191 -0.001784 -16.644900 -2.192510 6.469440 -0.000001 174.750000 17.970700 -178.687000 -39.081100 -0.002282 -0.040193 -0.249094 0.364397 34.707300 -40.985400 0.000008 0.000006 3.572220 10.806300 -73.400400 -11.754300 -0.000006 -0.000006 -0.002443 -0.034134 -17.961100
0.000000 0.000000 0.000000 0.000000 0.000000 -0.000000 -1.084360 89.776100 0.507626 88.813200 -3.292750 12.224900 15.735700 0.000005 -0.000001 88.826700 78.454000 -89.029500 8.984550 -0.406207 -0.000000 15.320600 -0.479745 -0.341396 16.377300 -0.000001 -0.000001 5.237910 -3.750520 1.774970 6.456720 -0.000001 -0.000000 -3.271350 -2.898530 -0.885144 12.994200 -0.242716 4.980390 -91.604300 7.312140 -77.589500 5.348090 -0.000007 -0.000001 -62.788600 28.798900 -21.591400 24.328600 0.000019 0.000005 8.839570 18.868400 -25.683300 22.291600 -0.000001 0.000005 13.027300 5.264900 1.035950 12.994500 -0.242716 -4.980390 89.049000 11.097100 -85.070800 -5.348130 -0.000001 -0.000004 -57.999600 37.916300 -21.190500 -24.328900 0.000322 -0.000009 1.277550 3.660460 -19.269400 -22.291500 -0.000108 -0.000004 12.197100 5.415330 -3.442610 -2.192480 -6.469440 -0.000000 -174.014000 -10.834600 -0.186978 39.081100 -0.000007 -0.000012 -0.263072 0.361823 36.020400 40.985400 -0.000006 -0.000013 0.186965 3.715240 -73.374000 11.754300 -0.000000 0.000003 -0.000183 -0.001717 -16.642500 -2.192510 6.469440 -0.000001 174.736000 18.042900 -178.664000 -39.081100 -0.002282 -0.040193 -0.246616 0.360534 34.728500 -40.985400 0.000008 0.000006 3.738140 10.761100 -73.492000 -11.754300 -0.000006 -0.000006 -0.002618 -0.036206 -18.045400
0.000000 0.000000 0.000000 0.000000 0.000000 -0.000000 -1.087080 89.771500 0.546945 88.818000 -3.218730 12.212900 15.735700 0.000005 -0.000001 88.870800 78.457800 -89.070200 8.984550 -0.406207 -0.000000 15.313500 -0.461842 -0.337130 16.377300 -0.000001 -0.000001 5.301270 -3.796530 1.812260 6.456720 -0.000001 -0.000000 -3.241930 -2.957180 -0.886676 12.994200 -0.242716 4.980390 -91.606700 7.272240 -77.506100 5.348090 -0.000007 -0.000001 -63.841500 25.982300 -20.994700 24.328600 0.000019 0.000005 8.722140 17.114200 -27.535700 22.291600 -0.000001 0.000005 13.525700 5.267070 0.977180 12.994500 -0.242716 -4.980390 89.040900 11.108100 -85.033800 -5.348130 -0.000001 -0.000004 -57.977700 37.931100 -21.231300 -24.328900 0.000322 -0.000009 1.260090 3.610040 -19.271300 -22.291500 -0.000108 -0.000004 12.213300 5.415550 -3.449690 -2.192480 -6.469440 -0.000000 -174.031000 -10.769800 -0.186413 39.081100 -0.000007 -0.000012 -0.263083 0.361767 36.025800 40.985400 -0.000006 -0.000013 0.183552 3.717290 -73.398400 11.754300 -0.000000 0.000003 -0.000201 -0.001859 -16.647700 -2.192510 6.469440 -0.000001 174.704000 18.117700 -178.632000 -39.081100 -0.002282 -0.040193 -0.244897 0.358087 34.725900 -40.985400 0.000008 0.000006 3.701610 10.768500 -73.517200 -11.754300 -0.000006 -0.000006 -0.002356 -0.033088 -17.918600
0.000000 0.000000 0.000000 0.000000 0.000000 -0.000000 -1.101770 89.766700 0.578205 88.812100 -3.110400 12.193200 15.735700 0.000005 -0.000001 88.933900 78.463700 -89.111800 8.984550 -0.406207 -0.000000 15.302300 -0.435121 -0.297657 16.377300 -0.000001 -0.000001 5.398540 -3.838240 1.861650 6.456720 -0.000001 -0.000000 -3.235580 -3.032140 -0.959752 12.994200 -0.242716 4.980390 -91.623200 7.278940 -77.392800 5.348090 -0.000007 -0.000001 -64.078900 23.886400 -21.047600 24.328600 0.000019 0.000005 8.963050 16.018900 -29.750400 22.291600 -0.000001 0.000005 14.140900 5.264360 1.050050 12.994500 -0.242716 -4.980390 89.036000 11.080900 -84.996800 -5.348130 -0.000001 -0.000004 -57.968600 37.856800 -21.265100 -24.328900 0.000322 -0.000009 1.221870 3.493180 -19.308400 -22.291500 -0.000108 -0.000004 12.102400 5.414220 -3.405240 -2.192480 -6.469440 -0.000000 -174.025000 -10.701100 -0.207314 39.081100 -0.000007 -0.000012 -0.264385 0.363351 36.041200 40.985400 -0.000006 -0.000013 0.185630 3.768050 -73.419000 11.754300 -0.000000 0.000003 -0.000211 -0.001937 -16.650500 -2.192510 6.469440 -0.000001 174.714000 18.178600 -178.622000 -39.081100 -0.002282 -0.040193 -0.242901 0.355103 34.733900 -40.985400 0.000008 0.000006 3.727950 10.711700 -73.556700 -11.754300 -0.000006 -0.000006 -0.002300 -0.032416 -17.891200
0.000000 0.000000 0.000000 0.000000 0.000000 -0.000000 -1.119350 89.768400 0.595178 88.831500 -2.988730 12.152100 15.735700 0.000005 -0.000001 88.986600 78.485000 -89.150100 8.984550 -0.406207 -0.000000 15.260000 -0.412466 -0.272024 16.377300 -0.000001 -0.000001 5.480930 -3.870750 1.869420 6.456720 -0.000001 -0.000000 -3.147320 -3.103330 -0.952079 12.994200 -0.242716 4.980390 -91.645200 7.305100 -77.271100 5.348090 -0.000007 -0.000001 -63.915600 21.945200 -21.456000 24.328600 0.000019 0.000005 9.842320 15.882000 -32.373300 22.291600 -0.000001 0.000005 14.829000 5.257800 1.225530 12.994500 -0.242716 -4.980390 89.035500 11.099100 -85.001800 -5.348130 -0.000001 -0.000004 -57.952100 37.789100 -21.247900 -24.328900 0.000322 -0.000009 1.274550 3.650890 -19.274200 -22.291500 -0.000108 -0.000004 12.199900 5.414560 -3.416820 -2.192480 -6.469440 -0.000000 -174.058000 -10.614000 -0.242654 39.081100 -0.000007 -0.000012 -0.265730 0.365495 36.019200 40.985400 -0.000006 -0.000013 0.182847 3.800550 -73.412600 11.754300 -0.000000 0.000003 -0.000197 -0.001827 -16.646500 -2.192510 6.469440 -0.000001 174.690000 18.296800 -178.625000 -39.081100 -0.002282 -0.040193 -0.239924 0.350852 34.730500 -40.985400 0.000008 0.000006 3.790890 10.675000 -73.597000 -11.754300 -0.000006 -0.000006 -0.002426 -0.033929 -17.952800
0.000000 0.000000 0.000000 0.000000 0.000000 -0.000000 -1.139310 89.767400 0.609144 88.838400 -2.844450 12.139500 15.735700 0.000005 -0.000001 89.008000 78.500900 -89.151600 8.984550 -0.406207 -0.000000 15.228500 -0.402104 -0.233546 16.377300 -0.000001 -0.000001 5.605070 -3.914010 1.920900 6.456720 -0.000001 -0.000000 -3.107270 -3.158950 -0.978549 12.994200 -0.242716 4.980390 -91.664800 7.323630 -77.155900 5.348090 -0.000007 -0.000001 -63.576300 19.907900 -22.094500 24.328600 0.000019 0.000005 10.900200 15.808900 -35.254600 22.291600 -0.000001 0.000005 15.440500 5.251640 1.388660 12.994500 -0.242716 -4.980390 89.032900 11.088100 -84.983500 -5.348130 -0.000001 -0.000004 -57.898500 37.803700 -21.278500 -24.328900 0.000322 -0.000009 1.234110 3.535730 -19.270300 -22.291500 -0.000108 -0.000004 12.202300 5.414560 -3.416660 -2.192480 -6.469440 -0.000000 -174.075000 -10.523100 -0.279890 39.081100 -0.000007 -0.000012 -0.264943 0.364336 36.024900 40.985400 -0.000006 -0.000013 0.183248 3.839340 -73.403800 11.754300 -0.000000 0.000003 -0.000213 -0.001955 -16.651200 -2.192510 6.469440 -0.000001 174.670000 18.408600 -178.607000 -39.081100 -0.002282 -0.040193 -0.240692 0.351966 34.730100 -40.985400 0.000008 0.000006 3.809390 10.638900 -73.621100 -11.754300 -0.000006 -0.000006 -0.002368 -0.033226 -17.924200
